<svg xmlns="http://www.w3.org/2000/svg" viewBox="-90 -90 1180 1180" width="1000" height="1000">
<defs><mask id="m" maskUnits="userSpaceOnUse" x="-90" y="-90" width="1180" height="1180"><rect x="-90" y="-90" width="1180" height="1180" fill="#fff"/>
<path d="M-10.0 440.0 L-6.5 442.1 L-3.0 444.2 L0.5 446.3 L4.0 448.4 L7.5 450.4 L11.0 452.5 L14.5 454.5 L18.0 456.4 L21.5 458.3 L25.0 460.2 L28.5 462.0 L32.0 463.7 L35.5 465.4 L39.0 467.0 L42.5 468.6 L46.0 470.0 L49.5 471.4 L53.0 472.7 L56.5 473.9 L60.0 475.1 L63.5 476.1 L67.0 477.1 L70.5 477.9 L74.0 478.7 L77.5 479.3 L81.0 479.9 L84.5 480.3 L88.0 480.7 L91.5 481.0 L95.0 481.1 L98.5 481.2 L102.0 481.2 L105.5 481.0 L109.0 480.8 L112.5 480.5 L116.0 480.1 L119.5 479.6 L123.0 479.0 L126.5 478.4 L130.0 477.6 L133.5 476.8 L137.0 475.9 L140.5 475.0 L144.0 474.0 L147.5 472.9 L151.0 471.8 L154.5 470.6 L158.0 469.4 L161.5 468.2 L165.0 466.9 L168.5 465.6 L172.0 464.3 L175.5 463.0 L179.0 461.6 L182.5 460.3 L186.0 459.0 L189.5 457.6 L193.0 456.3 L196.5 455.0 L200.0 453.7 L203.5 452.5 L207.0 451.3 L210.5 450.1 L214.0 449.0 L217.5 447.9 L221.0 446.9 L224.5 446.0 L228.0 445.1 L231.5 444.3 L235.0 443.5 L238.5 442.9 L242.0 442.3 L245.5 441.8 L249.0 441.4 L252.5 441.0 L256.0 440.8 L259.5 440.7 L263.0 440.6 L266.5 440.7 L270.0 440.8 L273.5 441.1 L277.0 441.4 L280.5 441.9 L284.0 442.4 L287.5 443.1 L291.0 443.8 L294.5 444.7 L298.0 445.6 L301.5 446.6 L305.0 447.8 L308.5 449.0 L312.0 450.3 L315.5 451.7 L319.0 453.1 L322.5 454.7 L326.0 456.3 L329.5 457.9 L333.0 459.7 L336.5 461.5 L340.0 463.3 L343.5 465.2 L347.0 467.2 L350.5 469.2 L354.0 471.2 L357.5 473.2 L361.0 475.3 L364.5 477.4 L368.0 479.5 L371.5 481.6 L375.0 483.7 L378.5 485.8 L382.0 487.9 L385.5 490.0 L389.0 492.1 L392.5 494.1 L396.0 496.1 L399.5 498.0 L403.0 500.0 L406.5 501.8 L410.0 503.6 L413.5 505.4 L417.0 507.1 L420.5 508.7 L424.0 510.2 L427.5 511.7 L431.0 513.1 L434.5 514.4 L438.0 515.7 L441.5 516.8 L445.0 517.8 L448.5 518.8 L452.0 519.7 L455.5 520.4 L459.0 521.1 L462.5 521.7 L466.0 522.1 L469.5 522.5 L473.0 522.8 L476.5 522.9 L480.0 523.0 L483.5 523.0 L487.0 522.9 L490.5 522.7 L494.0 522.3 L497.5 521.9 L501.0 521.5 L504.5 520.9 L508.0 520.2 L511.5 519.5 L515.0 518.7 L518.5 517.8 L522.0 516.9 L525.5 515.9 L529.0 514.8 L532.5 513.7 L536.0 512.6 L539.5 511.4 L543.0 510.1 L546.5 508.9 L550.0 507.6 L553.5 506.3 L557.0 504.9 L560.5 503.6 L564.0 502.2 L567.5 500.9 L571.0 499.6 L574.5 498.2 L578.0 496.9 L581.5 495.7 L585.0 494.4 L588.5 493.2 L592.0 492.0 L595.5 490.9 L599.0 489.8 L602.5 488.8 L606.0 487.9 L609.5 487.0 L613.0 486.2 L616.5 485.4 L620.0 484.7 L623.5 484.1 L627.0 483.6 L630.5 483.2 L634.0 482.9 L637.5 482.6 L641.0 482.5 L644.5 482.4 L648.0 482.5 L651.5 482.6 L655.0 482.9 L658.5 483.2 L662.0 483.7 L665.5 484.2 L669.0 484.8 L672.5 485.6 L676.0 486.4 L679.5 487.3 L683.0 488.4 L686.5 489.5 L690.0 490.7 L693.5 492.0 L697.0 493.3 L700.5 494.8 L704.0 496.3 L707.5 497.9 L711.0 499.6 L714.5 501.3 L718.0 503.1 L721.5 505.0 L725.0 506.9 L728.5 508.8 L732.0 510.8 L735.5 512.8 L739.0 514.9 L742.5 516.9 L746.0 519.0 L749.5 521.1 L753.0 523.3 L756.5 525.4 L760.0 527.5 L763.5 529.6 L767.0 531.6 L770.5 533.7 L774.0 535.7 L777.5 537.7 L781.0 539.7 L784.5 541.6 L788.0 543.5 L791.5 545.3 L795.0 547.0 L798.5 548.7 L802.0 550.4 L805.5 551.9 L809.0 553.4 L812.5 554.8 L816.0 556.1 L819.5 557.4 L823.0 558.5 L826.5 559.6 L830.0 560.5 L833.5 561.4 L837.0 562.2 L840.5 562.9 L844.0 563.4 L847.5 563.9 L851.0 564.3 L854.5 564.6 L858.0 564.7 L861.5 564.8 L865.0 564.8 L868.5 564.7 L872.0 564.5 L875.5 564.2 L879.0 563.8 L882.5 563.3 L886.0 562.8 L889.5 562.1 L893.0 561.4 L896.5 560.6 L900.0 559.7 L903.5 558.8 L907.0 557.8 L910.5 556.8 L914.0 555.7 L917.5 554.5 L921.0 553.3 L924.5 552.1 L928.0 550.8 L931.5 549.5 L935.0 548.2 L938.5 546.9 L942.0 545.5" fill="none" stroke="#000" stroke-width="106" stroke-linecap="round" stroke-linejoin="round"/>
<path d="M1040.0 525.0 L924.7 632.9 L941.1 545.7 L891.1 472.4Z" fill="#000" stroke="#000" stroke-width="66" stroke-linejoin="round"/></mask></defs>
<circle cx="500" cy="500" r="300" fill="none" stroke="#1B3A6B" stroke-width="40" mask="url(#m)"/>
<path d="M-10.0 440.0 L-6.5 442.1 L-3.0 444.2 L0.5 446.3 L4.0 448.4 L7.5 450.4 L11.0 452.5 L14.5 454.5 L18.0 456.4 L21.5 458.3 L25.0 460.2 L28.5 462.0 L32.0 463.7 L35.5 465.4 L39.0 467.0 L42.5 468.6 L46.0 470.0 L49.5 471.4 L53.0 472.7 L56.5 473.9 L60.0 475.1 L63.5 476.1 L67.0 477.1 L70.5 477.9 L74.0 478.7 L77.5 479.3 L81.0 479.9 L84.5 480.3 L88.0 480.7 L91.5 481.0 L95.0 481.1 L98.5 481.2 L102.0 481.2 L105.5 481.0 L109.0 480.8 L112.5 480.5 L116.0 480.1 L119.5 479.6 L123.0 479.0 L126.5 478.4 L130.0 477.6 L133.5 476.8 L137.0 475.9 L140.5 475.0 L144.0 474.0 L147.5 472.9 L151.0 471.8 L154.5 470.6 L158.0 469.4 L161.5 468.2 L165.0 466.9 L168.5 465.6 L172.0 464.3 L175.5 463.0 L179.0 461.6 L182.5 460.3 L186.0 459.0 L189.5 457.6 L193.0 456.3 L196.5 455.0 L200.0 453.7 L203.5 452.5 L207.0 451.3 L210.5 450.1 L214.0 449.0 L217.5 447.9 L221.0 446.9 L224.5 446.0 L228.0 445.1 L231.5 444.3 L235.0 443.5 L238.5 442.9 L242.0 442.3 L245.5 441.8 L249.0 441.4 L252.5 441.0 L256.0 440.8 L259.5 440.7 L263.0 440.6 L266.5 440.7 L270.0 440.8 L273.5 441.1 L277.0 441.4 L280.5 441.9 L284.0 442.4 L287.5 443.1 L291.0 443.8 L294.5 444.7 L298.0 445.6 L301.5 446.6 L305.0 447.8 L308.5 449.0 L312.0 450.3 L315.5 451.7 L319.0 453.1 L322.5 454.7 L326.0 456.3 L329.5 457.9 L333.0 459.7 L336.5 461.5 L340.0 463.3 L343.5 465.2 L347.0 467.2 L350.5 469.2 L354.0 471.2 L357.5 473.2 L361.0 475.3 L364.5 477.4 L368.0 479.5 L371.5 481.6 L375.0 483.7 L378.5 485.8 L382.0 487.9 L385.5 490.0 L389.0 492.1 L392.5 494.1 L396.0 496.1 L399.5 498.0 L403.0 500.0 L406.5 501.8 L410.0 503.6 L413.5 505.4 L417.0 507.1 L420.5 508.7 L424.0 510.2 L427.5 511.7 L431.0 513.1 L434.5 514.4 L438.0 515.7 L441.5 516.8 L445.0 517.8 L448.5 518.8 L452.0 519.7 L455.5 520.4 L459.0 521.1 L462.5 521.7 L466.0 522.1 L469.5 522.5 L473.0 522.8 L476.5 522.9 L480.0 523.0 L483.5 523.0 L487.0 522.9 L490.5 522.7 L494.0 522.3 L497.5 521.9 L501.0 521.5 L504.5 520.9 L508.0 520.2 L511.5 519.5 L515.0 518.7 L518.5 517.8 L522.0 516.9 L525.5 515.9 L529.0 514.8 L532.5 513.7 L536.0 512.6 L539.5 511.4 L543.0 510.1 L546.5 508.9 L550.0 507.6 L553.5 506.3 L557.0 504.9 L560.5 503.6 L564.0 502.2 L567.5 500.9 L571.0 499.6 L574.5 498.2 L578.0 496.9 L581.5 495.7 L585.0 494.4 L588.5 493.2 L592.0 492.0 L595.5 490.9 L599.0 489.8 L602.5 488.8 L606.0 487.9 L609.5 487.0 L613.0 486.2 L616.5 485.4 L620.0 484.7 L623.5 484.1 L627.0 483.6 L630.5 483.2 L634.0 482.9 L637.5 482.6 L641.0 482.5 L644.5 482.4 L648.0 482.5 L651.5 482.6 L655.0 482.9 L658.5 483.2 L662.0 483.7 L665.5 484.2 L669.0 484.8 L672.5 485.6 L676.0 486.4 L679.5 487.3 L683.0 488.4 L686.5 489.5 L690.0 490.7 L693.5 492.0 L697.0 493.3 L700.5 494.8 L704.0 496.3 L707.5 497.9 L711.0 499.6 L714.5 501.3 L718.0 503.1 L721.5 505.0 L725.0 506.9 L728.5 508.8 L732.0 510.8 L735.5 512.8 L739.0 514.9 L742.5 516.9 L746.0 519.0 L749.5 521.1 L753.0 523.3 L756.5 525.4 L760.0 527.5 L763.5 529.6 L767.0 531.6 L770.5 533.7 L774.0 535.7 L777.5 537.7 L781.0 539.7 L784.5 541.6 L788.0 543.5 L791.5 545.3 L795.0 547.0 L798.5 548.7 L802.0 550.4 L805.5 551.9 L809.0 553.4 L812.5 554.8 L816.0 556.1 L819.5 557.4 L823.0 558.5 L826.5 559.6 L830.0 560.5 L833.5 561.4 L837.0 562.2 L840.5 562.9 L844.0 563.4 L847.5 563.9 L851.0 564.3 L854.5 564.6 L858.0 564.7 L861.5 564.8 L865.0 564.8 L868.5 564.7 L872.0 564.5 L875.5 564.2 L879.0 563.8 L882.5 563.3 L886.0 562.8 L889.5 562.1 L893.0 561.4 L896.5 560.6 L900.0 559.7 L903.5 558.8 L907.0 557.8 L910.5 556.8 L914.0 555.7 L917.5 554.5 L921.0 553.3 L924.5 552.1 L928.0 550.8 L931.5 549.5 L935.0 548.2 L938.5 546.9 L942.0 545.5" fill="none" stroke="#E07540" stroke-width="58" stroke-linecap="round" stroke-linejoin="round"/>
<path d="M1040.0 525.0 L924.7 632.9 L941.1 545.7 L891.1 472.4Z" fill="#E07540" stroke="#E07540" stroke-width="18" stroke-linejoin="round"/>
</svg>